<svg width="580" height="660" xmlns="http://www.w3.org/2000/svg" xmlns:xlink="http://www.w3.org/1999/xlink" xml:space="preserve" overflow="hidden"><defs><clipPath id="clip0"><rect x="2031" y="637" width="580" height="660"/></clipPath><clipPath id="clip1"><rect x="2035" y="643" width="571" height="649"/></clipPath><clipPath id="clip2"><rect x="2035" y="643" width="571" height="649"/></clipPath><clipPath id="clip3"><rect x="2035" y="643" width="571" height="649"/></clipPath><clipPath id="clip4"><rect x="2035" y="643" width="571" height="649"/></clipPath><clipPath id="clip5"><rect x="2035" y="643" width="571" height="649"/></clipPath><clipPath id="clip6"><rect x="2035" y="643" width="571" height="649"/></clipPath><clipPath id="clip7"><rect x="1902" y="1078" width="578" height="66"/></clipPath><clipPath id="clip8"><rect x="2068" y="805" width="506" height="327"/></clipPath><clipPath id="clip9"><rect x="2035" y="643" width="571" height="649"/></clipPath><clipPath id="clip10"><rect x="2035" y="643" width="572" height="650"/></clipPath><clipPath id="clip11"><path d="M1460.78 1071.87 2890.11 343.598 2935.11 431.919 1505.79 1160.2Z" fill-rule="evenodd" clip-rule="evenodd"/></clipPath></defs><g clip-path="url(#clip0)" transform="translate(-2031 -637)"><path d="M2321 642.5 2606.5 785.25 2606.5 1148.75 2321 1291.5 2035.5 1148.75 2035.5 785.25Z" stroke="#004C9A" stroke-width="9.16667" stroke-miterlimit="8" fill="#FFFFFF" fill-rule="evenodd"/><g clip-path="url(#clip1)"><rect x="2068" y="805" width="506" height="328" fill="#FFFFFF"/></g><g clip-path="url(#clip2)"><path d="M2562.51 854.359C2562.51 861.815 2556.46 867.859 2549.01 867.859 2541.55 867.859 2535.51 861.815 2535.51 854.359 2535.51 846.904 2541.55 840.859 2549.01 840.859 2556.46 840.859 2562.51 846.904 2562.51 854.359Z" stroke="#0860B8" stroke-width="5.72917" stroke-linejoin="round" stroke-miterlimit="10" fill="none"/><path d="M2333.51 871.359C2333.51 878.815 2327.46 884.859 2320.01 884.859 2312.55 884.859 2306.51 878.815 2306.51 871.359 2306.51 863.903 2312.55 857.859 2320.01 857.859 2327.46 857.859 2333.51 863.903 2333.51 871.359Z" stroke="#0860B8" stroke-width="5.72917" stroke-linejoin="round" stroke-miterlimit="10" fill="none"/><path d="M2175.51 1058.36C2175.51 1065.81 2169.46 1071.86 2162.01 1071.86 2154.55 1071.86 2148.51 1065.81 2148.51 1058.36 2148.51 1050.9 2154.55 1044.86 2162.01 1044.86 2169.46 1044.86 2175.51 1050.9 2175.51 1058.36Z" stroke="#0860B8" stroke-width="5.72917" stroke-linejoin="round" stroke-miterlimit="10" fill="none"/><path d="M2110.51 1110.36C2110.51 1117.82 2104.46 1123.86 2097.01 1123.86 2089.55 1123.86 2083.51 1117.82 2083.51 1110.36 2083.51 1102.9 2089.55 1096.86 2097.01 1096.86 2104.46 1096.86 2110.51 1102.9 2110.51 1110.36Z" stroke="#0860B8" stroke-width="5.72917" stroke-linejoin="round" stroke-miterlimit="10" fill="none"/></g><g clip-path="url(#clip3)"><text fill="#244061" font-family="Arial,Arial_MSFontService,sans-serif" font-weight="400" font-size="41" transform="matrix(1 0 0 1 2524.07 929)">C2</text></g><g clip-path="url(#clip4)"><text fill="#244061" font-family="Arial,Arial_MSFontService,sans-serif" font-weight="400" font-size="41" transform="matrix(1 0 0 1 2361.91 887)">C3</text></g><g clip-path="url(#clip5)"><text fill="#244061" font-family="Arial,Arial_MSFontService,sans-serif" font-weight="400" font-size="41" transform="matrix(1 0 0 1 2204.39 1075)">IC4</text></g><g clip-path="url(#clip6)"><g clip-path="url(#clip7)"><text fill="#244061" font-family="Arial,Arial_MSFontService,sans-serif" font-weight="400" font-size="41" transform="matrix(1 0 0 1 2149.73 1126)">NC4</text></g></g><g clip-path="url(#clip8)"><path d="M0 0 452 265" stroke="#0860B8" stroke-width="4.58333" stroke-linecap="round" stroke-linejoin="round" stroke-miterlimit="10" stroke-dasharray="13.75 18.3333" fill="none" fill-rule="evenodd" transform="matrix(1 0 0 -1 2098.5 1082.5)"/></g><g clip-path="url(#clip9)"><text fill="#244061" font-family="Arial,Arial_MSFontService,sans-serif" font-weight="700" font-size="37" transform="matrix(0.891006 -0.45399 0.45399 0.891006 2360.49 1228)">R² = 0.8231</text></g><g clip-path="url(#clip10)"><g clip-path="url(#clip11)"><text fill="#244061" font-family="Arial,Arial_MSFontService,sans-serif" font-weight="700" font-size="83" transform="matrix(0.891006 -0.45399 0.45399 0.891006 2116.16 844)">remrc</text></g></g><path d="M2321 670.5 2582.5 801.25 2582.5 1134.75 2321 1265.5 2059.5 1134.75 2059.5 801.25Z" stroke="#004C9A" stroke-width="3.4375" stroke-miterlimit="8" fill="none" fill-rule="evenodd"/></g></svg>